M48
;GenerationSoftware,Autodesk,EAGLE,9.6.2*%
;CreationDate,2022-05-04T14:03:30Z*%
FMAT,2
ICI,OFF
METRIC,TZ,000.000
T5C0.600
T4C0.813
T3C0.914
T2C1.016
T1C3.213
%
G90
M71
T1
X105410Y45720
X105410Y2540
X2540Y2540
X2540Y45720
T2
X87630Y45720
X85090Y45720
X82550Y45720
X82550Y2540
X85090Y2540
X87630Y2540
X2540Y30480
X2540Y27940
X2540Y25400
X2540Y22860
X2540Y20320
X2540Y17780
T3
X101600Y29210
X104140Y29210
X101600Y26670
X104140Y26670
X101600Y24130
X104140Y24130
X101600Y21590
X104140Y21590
X101600Y19050
X104140Y19050
T4
X41910Y43815
X48260Y43815
X11430Y17780
X11430Y12700
X102870Y39370
X102870Y36830
X102870Y11430
X102870Y8890
X96520Y21590
X96520Y26670
X59690Y12700
X59690Y17780
X73660Y26670
X73660Y21590
X69850Y26670
X69850Y21590
X21590Y21590
X21590Y26670
X45720Y26670
X45720Y21590
X25400Y13970
X25400Y6350
X69850Y10160
X69850Y17780
X67310Y17780
X67310Y10160
X62230Y10160
X62230Y17780
X27940Y13970
X27940Y6350
X30480Y17780
X30480Y10160
X64770Y17780
X64770Y10160
X76200Y10160
X76200Y17780
X78740Y10160
X78740Y17780
X81280Y10160
X81280Y17780
X25400Y26670
X25400Y21590
X19050Y27940
X16510Y27940
X16510Y20320
X19050Y20320
X13970Y27940
X11430Y27940
X13970Y20320
X11430Y20320
X93980Y27940
X91440Y27940
X88900Y27940
X86360Y27940
X83820Y27940
X81280Y27940
X78740Y27940
X76200Y27940
X76200Y20320
X78740Y20320
X81280Y20320
X83820Y20320
X86360Y20320
X88900Y20320
X91440Y20320
X93980Y20320
X67310Y27940
X64770Y27940
X52070Y27940
X52070Y20320
X62230Y27940
X59690Y27940
X54610Y27940
X57150Y27940
X54610Y20320
X57150Y20320
X59690Y20320
X62230Y20320
X64770Y20320
X67310Y20320
X43180Y27940
X40640Y27940
X27940Y27940
X27940Y20320
X38100Y27940
X35560Y27940
X30480Y27940
X33020Y27940
X30480Y20320
X33020Y20320
X35560Y20320
X38100Y20320
X40640Y20320
X43180Y20320
X40640Y38735
X40640Y31115
X38100Y38735
X38100Y31115
X27940Y30480
X27940Y38100
X43180Y31115
X43180Y38735
X81280Y31750
X81280Y39370
X16510Y30480
X16510Y38100
X76200Y44450
X68580Y44450
X76200Y41910
X68580Y41910
X36830Y43815
X93980Y17780
X39370Y43815
X12700Y41910
X17780Y41910
X15240Y41910
X21590Y43180
X29210Y43180
X11430Y30480
X11430Y38100
X19050Y45720
X11430Y45720
X27940Y45720
X22860Y45720
X93980Y10160
X53340Y43815
X50800Y43815
X48260Y38735
X48260Y31115
X93980Y41275
X93980Y33655
X91440Y31750
X91440Y39370
X76200Y31750
X76200Y39370
X60325Y38100
X60325Y33020
X60325Y35560
X65405Y33020
X65405Y38100
X65405Y35560
X49530Y21590
X49530Y26670
X59690Y43815
X64770Y43815
X62230Y43815
X85725Y41910
X78105Y41910
X62865Y38100
X62865Y33020
X50800Y39370
X50800Y31750
X86360Y39370
X86360Y31750
X78740Y31750
X78740Y39370
X13970Y30480
X13970Y38100
X19050Y30480
X19050Y38100
X57150Y17145
X57150Y12065
X38100Y8890
X38100Y16510
X40640Y16510
X40640Y8890
X43180Y8890
X43180Y16510
X8890Y20320
X8890Y27940
X8890Y38100
X8890Y30480
X88900Y10160
X88900Y17780
X86360Y17780
X86360Y10160
X83820Y10160
X83820Y17780
X91440Y10160
X91440Y17780
X59690Y3810
X64770Y3810
X62230Y3810
X48260Y3810
X53340Y3810
X50800Y3810
T5
X53340Y13335
X5080Y28575
X100965Y5080
X36195Y8890
X88900Y32385
X83820Y32385
X64770Y30480
X71755Y30480
X82550Y41910
X7620Y13970
X6350Y15875
X52070Y10795
X76200Y3810
X76200Y13970
X48260Y7620
X78740Y3810
X78740Y1270
X46355Y13970
X45720Y17780
X72390Y13970
X72390Y11430
X77470Y8890
X32385Y10160
X32385Y7620
X79375Y22860
X71755Y20320
X83185Y22860
X88900Y22860
X73025Y31750
X54610Y31115
X31750Y38100
X31750Y33020
X16510Y33020
X11430Y25400
X13970Y25400
X80010Y37465
X79375Y46355
X71755Y2540
X74295Y29210
X69850Y36830
X96520Y34290
X20955Y40005
X53340Y17145
X96520Y16510
X56515Y34925
X53340Y39370
X2540Y6350
X90805Y43180
X96520Y43180
X93345Y5080
X81280Y15875
X2540Y40005
X23495Y29210
X25400Y38100
X14605Y33020
X14605Y12065
X23495Y18415
X14605Y6350
X72390Y8255
X78740Y14605
X34290Y14605
X41480Y2605
M30