G04 EAGLE Gerber RS-274X export*
G75*
%MOMM*%
%FSLAX34Y34*%
%LPD*%
%INSoldermask Top*%
%IPPOS*%
%AMOC8*
5,1,8,0,0,1.08239X$1,22.5*%
G01*
%ADD10C,3.416300*%
%ADD11P,1.649562X8X292.500000*%
%ADD12C,1.524000*%
%ADD13C,1.524000*%
%ADD14P,1.649562X8X112.500000*%
%ADD15P,1.649562X8X202.500000*%
%ADD16P,1.951982X8X292.500000*%
%ADD17C,1.803400*%
%ADD18C,1.727200*%
%ADD19P,1.759533X8X112.500000*%
%ADD20R,1.209600X1.209600*%


D10*
X25400Y457200D03*
X25400Y25400D03*
X1054100Y25400D03*
X1054100Y457200D03*
D11*
X254000Y266700D03*
X254000Y215900D03*
D12*
X190500Y279400D03*
X165100Y279400D03*
X165100Y203200D03*
X190500Y203200D03*
X139700Y279400D03*
X114300Y279400D03*
X139700Y203200D03*
X114300Y203200D03*
D13*
X939800Y272796D02*
X939800Y286004D01*
X914400Y286004D02*
X914400Y272796D01*
X889000Y272796D02*
X889000Y286004D01*
X863600Y286004D02*
X863600Y272796D01*
X838200Y272796D02*
X838200Y286004D01*
X812800Y286004D02*
X812800Y272796D01*
X787400Y272796D02*
X787400Y286004D01*
X762000Y286004D02*
X762000Y272796D01*
X762000Y209804D02*
X762000Y196596D01*
X787400Y196596D02*
X787400Y209804D01*
X812800Y209804D02*
X812800Y196596D01*
X838200Y196596D02*
X838200Y209804D01*
X863600Y209804D02*
X863600Y196596D01*
X889000Y196596D02*
X889000Y209804D01*
X914400Y209804D02*
X914400Y196596D01*
X939800Y196596D02*
X939800Y209804D01*
X673100Y272796D02*
X673100Y286004D01*
X647700Y286004D02*
X647700Y272796D01*
X520700Y272796D02*
X520700Y286004D01*
X520700Y209804D02*
X520700Y196596D01*
X622300Y272796D02*
X622300Y286004D01*
X596900Y286004D02*
X596900Y272796D01*
X546100Y272796D02*
X546100Y286004D01*
X571500Y286004D02*
X571500Y272796D01*
X546100Y209804D02*
X546100Y196596D01*
X571500Y196596D02*
X571500Y209804D01*
X596900Y209804D02*
X596900Y196596D01*
X622300Y196596D02*
X622300Y209804D01*
X647700Y209804D02*
X647700Y196596D01*
X673100Y196596D02*
X673100Y209804D01*
X431800Y272796D02*
X431800Y286004D01*
X406400Y286004D02*
X406400Y272796D01*
X279400Y272796D02*
X279400Y286004D01*
X279400Y209804D02*
X279400Y196596D01*
X381000Y272796D02*
X381000Y286004D01*
X355600Y286004D02*
X355600Y272796D01*
X304800Y272796D02*
X304800Y286004D01*
X330200Y286004D02*
X330200Y272796D01*
X304800Y209804D02*
X304800Y196596D01*
X330200Y196596D02*
X330200Y209804D01*
X355600Y209804D02*
X355600Y196596D01*
X381000Y196596D02*
X381000Y209804D01*
X406400Y209804D02*
X406400Y196596D01*
X431800Y196596D02*
X431800Y209804D01*
D11*
X406400Y387350D03*
X406400Y311150D03*
X381000Y387350D03*
X381000Y311150D03*
D14*
X279400Y304800D03*
X279400Y381000D03*
X431800Y311150D03*
X431800Y387350D03*
X812800Y317500D03*
X812800Y393700D03*
X165100Y304800D03*
X165100Y381000D03*
D15*
X762000Y444500D03*
X685800Y444500D03*
X762000Y419100D03*
X685800Y419100D03*
D13*
X368300Y431546D02*
X368300Y444754D01*
X419100Y444754D02*
X419100Y431546D01*
X393700Y431546D02*
X393700Y444754D01*
X127000Y425704D02*
X127000Y412496D01*
X177800Y412496D02*
X177800Y425704D01*
X152400Y425704D02*
X152400Y412496D01*
X209296Y431800D02*
X222504Y431800D01*
X285496Y431800D02*
X298704Y431800D01*
D14*
X114300Y304800D03*
X114300Y381000D03*
D15*
X190500Y457200D03*
X114300Y457200D03*
X279400Y457200D03*
X228600Y457200D03*
D13*
X482600Y444754D02*
X482600Y431546D01*
X533400Y431546D02*
X533400Y444754D01*
X508000Y444754D02*
X508000Y431546D01*
X482600Y393954D02*
X482600Y380746D01*
X482600Y317754D02*
X482600Y304546D01*
D11*
X939800Y412750D03*
X939800Y336550D03*
D14*
X914400Y317500D03*
X914400Y393700D03*
X762000Y317500D03*
X762000Y393700D03*
D13*
X609854Y381000D02*
X596646Y381000D01*
X596646Y330200D02*
X609854Y330200D01*
X609854Y355600D02*
X596646Y355600D01*
X647446Y330200D02*
X660654Y330200D01*
X660654Y381000D02*
X647446Y381000D01*
X647446Y355600D02*
X660654Y355600D01*
D14*
X495300Y215900D03*
X495300Y266700D03*
D13*
X596900Y431546D02*
X596900Y444754D01*
X647700Y444754D02*
X647700Y431546D01*
X622300Y431546D02*
X622300Y444754D01*
D15*
X857250Y419100D03*
X781050Y419100D03*
D11*
X628650Y381000D03*
X628650Y330200D03*
X508000Y393700D03*
X508000Y317500D03*
X863600Y393700D03*
X863600Y317500D03*
D14*
X787400Y317500D03*
X787400Y393700D03*
X139700Y304800D03*
X139700Y381000D03*
X190500Y304800D03*
X190500Y381000D03*
D11*
X571500Y171450D03*
X571500Y120650D03*
D14*
X381000Y88900D03*
X381000Y165100D03*
D11*
X406400Y165100D03*
X406400Y88900D03*
D14*
X431800Y88900D03*
X431800Y165100D03*
X88900Y203200D03*
X88900Y279400D03*
D11*
X88900Y381000D03*
X88900Y304800D03*
D14*
X889000Y101600D03*
X889000Y177800D03*
D11*
X863600Y177800D03*
X863600Y101600D03*
D14*
X838200Y101600D03*
X838200Y177800D03*
X914400Y101600D03*
X914400Y177800D03*
D13*
X596900Y44704D02*
X596900Y31496D01*
X647700Y31496D02*
X647700Y44704D01*
X622300Y44704D02*
X622300Y31496D01*
X482600Y31496D02*
X482600Y44704D01*
X533400Y44704D02*
X533400Y31496D01*
X508000Y31496D02*
X508000Y44704D01*
D14*
X939800Y101600D03*
X939800Y177800D03*
D11*
X812800Y177800D03*
X812800Y101600D03*
X787400Y177800D03*
X787400Y101600D03*
X762000Y177800D03*
X762000Y101600D03*
D14*
X647700Y101600D03*
X647700Y177800D03*
X304800Y101600D03*
X304800Y177800D03*
X279400Y63500D03*
X279400Y139700D03*
D11*
X622300Y177800D03*
X622300Y101600D03*
D14*
X673100Y101600D03*
X673100Y177800D03*
D11*
X698500Y177800D03*
X698500Y101600D03*
D14*
X254000Y63500D03*
X254000Y139700D03*
X457200Y215900D03*
X457200Y266700D03*
D11*
X215900Y266700D03*
X215900Y215900D03*
D14*
X698500Y215900D03*
X698500Y266700D03*
X736600Y215900D03*
X736600Y266700D03*
D11*
X596900Y177800D03*
X596900Y127000D03*
X965200Y266700D03*
X965200Y215900D03*
D16*
X1028700Y88900D03*
D17*
X1028700Y114300D03*
D16*
X1028700Y368300D03*
D17*
X1028700Y393700D03*
D14*
X114300Y127000D03*
X114300Y177800D03*
D18*
X33020Y177800D02*
X17780Y177800D01*
X17780Y203200D02*
X33020Y203200D01*
X33020Y228600D02*
X17780Y228600D01*
X17780Y254000D02*
X33020Y254000D01*
X33020Y279400D02*
X17780Y279400D01*
X17780Y304800D02*
X33020Y304800D01*
D19*
X1041400Y190500D03*
X1016000Y190500D03*
X1041400Y215900D03*
X1016000Y215900D03*
X1041400Y241300D03*
X1016000Y241300D03*
X1041400Y266700D03*
X1016000Y266700D03*
X1041400Y292100D03*
X1016000Y292100D03*
D18*
X876300Y33020D02*
X876300Y17780D01*
X850900Y17780D02*
X850900Y33020D01*
X825500Y33020D02*
X825500Y17780D01*
X825500Y449580D02*
X825500Y464820D01*
X850900Y464820D02*
X850900Y449580D01*
X876300Y449580D02*
X876300Y464820D01*
D20*
X414800Y26050D03*
X342900Y146050D03*
X787400Y146050D03*
X723900Y82550D03*
X146050Y63500D03*
X234950Y184150D03*
X146050Y120650D03*
X146050Y330200D03*
X254000Y381000D03*
X234950Y292100D03*
X25400Y400050D03*
X812800Y158750D03*
X933450Y50800D03*
X965200Y431800D03*
X908050Y431800D03*
X25400Y63500D03*
X533400Y393700D03*
X565150Y349250D03*
X965200Y165100D03*
X533400Y171450D03*
X209550Y400050D03*
X965200Y342900D03*
X1009650Y50800D03*
X361950Y88900D03*
X889000Y323850D03*
X838200Y323850D03*
X50800Y285750D03*
X533400Y133350D03*
X698500Y368300D03*
X742950Y292100D03*
X717550Y25400D03*
X793750Y463550D03*
X800100Y374650D03*
X139700Y254000D03*
X114300Y254000D03*
X165100Y330200D03*
X317500Y330200D03*
X317500Y381000D03*
X546100Y311150D03*
X730250Y317500D03*
X889000Y228600D03*
X831850Y228600D03*
X717550Y203200D03*
X793750Y228600D03*
X323850Y76200D03*
X323850Y101600D03*
X774700Y88900D03*
X723900Y114300D03*
X723900Y139700D03*
X457200Y177800D03*
X463550Y139700D03*
X787400Y12700D03*
X787400Y38100D03*
X482600Y76200D03*
X762000Y139700D03*
X762000Y38100D03*
X520700Y107950D03*
X63500Y158750D03*
X76200Y139700D03*
X825500Y419100D03*
X717550Y304800D03*
X647700Y304800D03*
M02*
