G04 EAGLE Gerber RS-274X export*
G75*
%MOMM*%
%FSLAX34Y34*%
%LPD*%
%IN*%
%IPPOS*%
%AMOC8*
5,1,8,0,0,1.08239X$1,22.5*%
G01*
%ADD10C,0.254000*%


D10*
X0Y0D02*
X1079500Y0D01*
X1079500Y482600D01*
X0Y482600D01*
X0Y0D01*
X41466Y456674D02*
X41397Y455624D01*
X41259Y454582D01*
X41054Y453550D01*
X40782Y452534D01*
X40444Y451538D01*
X40041Y450566D01*
X39576Y449623D01*
X39050Y448712D01*
X38466Y447837D01*
X37825Y447003D01*
X37132Y446212D01*
X36388Y445468D01*
X35597Y444775D01*
X34763Y444134D01*
X33888Y443550D01*
X32977Y443024D01*
X32034Y442559D01*
X31062Y442156D01*
X30066Y441818D01*
X29050Y441546D01*
X28018Y441341D01*
X26976Y441203D01*
X25926Y441135D01*
X24874Y441135D01*
X23824Y441203D01*
X22782Y441341D01*
X21750Y441546D01*
X20734Y441818D01*
X19738Y442156D01*
X18766Y442559D01*
X17823Y443024D01*
X16912Y443550D01*
X16037Y444134D01*
X15203Y444775D01*
X14412Y445468D01*
X13668Y446212D01*
X12975Y447003D01*
X12334Y447837D01*
X11750Y448712D01*
X11224Y449623D01*
X10759Y450566D01*
X10356Y451538D01*
X10018Y452534D01*
X9746Y453550D01*
X9541Y454582D01*
X9403Y455624D01*
X9335Y456674D01*
X9335Y457726D01*
X9403Y458776D01*
X9541Y459818D01*
X9746Y460850D01*
X10018Y461866D01*
X10356Y462862D01*
X10759Y463834D01*
X11224Y464777D01*
X11750Y465688D01*
X12334Y466563D01*
X12975Y467397D01*
X13668Y468188D01*
X14412Y468932D01*
X15203Y469625D01*
X16037Y470266D01*
X16912Y470850D01*
X17823Y471376D01*
X18766Y471841D01*
X19738Y472244D01*
X20734Y472582D01*
X21750Y472854D01*
X22782Y473059D01*
X23824Y473197D01*
X24874Y473266D01*
X25926Y473266D01*
X26976Y473197D01*
X28018Y473059D01*
X29050Y472854D01*
X30066Y472582D01*
X31062Y472244D01*
X32034Y471841D01*
X32977Y471376D01*
X33888Y470850D01*
X34763Y470266D01*
X35597Y469625D01*
X36388Y468932D01*
X37132Y468188D01*
X37825Y467397D01*
X38466Y466563D01*
X39050Y465688D01*
X39576Y464777D01*
X40041Y463834D01*
X40444Y462862D01*
X40782Y461866D01*
X41054Y460850D01*
X41259Y459818D01*
X41397Y458776D01*
X41466Y457726D01*
X41466Y456674D01*
X41466Y24874D02*
X41397Y23824D01*
X41259Y22782D01*
X41054Y21750D01*
X40782Y20734D01*
X40444Y19738D01*
X40041Y18766D01*
X39576Y17823D01*
X39050Y16912D01*
X38466Y16037D01*
X37825Y15203D01*
X37132Y14412D01*
X36388Y13668D01*
X35597Y12975D01*
X34763Y12334D01*
X33888Y11750D01*
X32977Y11224D01*
X32034Y10759D01*
X31062Y10356D01*
X30066Y10018D01*
X29050Y9746D01*
X28018Y9541D01*
X26976Y9403D01*
X25926Y9335D01*
X24874Y9335D01*
X23824Y9403D01*
X22782Y9541D01*
X21750Y9746D01*
X20734Y10018D01*
X19738Y10356D01*
X18766Y10759D01*
X17823Y11224D01*
X16912Y11750D01*
X16037Y12334D01*
X15203Y12975D01*
X14412Y13668D01*
X13668Y14412D01*
X12975Y15203D01*
X12334Y16037D01*
X11750Y16912D01*
X11224Y17823D01*
X10759Y18766D01*
X10356Y19738D01*
X10018Y20734D01*
X9746Y21750D01*
X9541Y22782D01*
X9403Y23824D01*
X9335Y24874D01*
X9335Y25926D01*
X9403Y26976D01*
X9541Y28018D01*
X9746Y29050D01*
X10018Y30066D01*
X10356Y31062D01*
X10759Y32034D01*
X11224Y32977D01*
X11750Y33888D01*
X12334Y34763D01*
X12975Y35597D01*
X13668Y36388D01*
X14412Y37132D01*
X15203Y37825D01*
X16037Y38466D01*
X16912Y39050D01*
X17823Y39576D01*
X18766Y40041D01*
X19738Y40444D01*
X20734Y40782D01*
X21750Y41054D01*
X22782Y41259D01*
X23824Y41397D01*
X24874Y41466D01*
X25926Y41466D01*
X26976Y41397D01*
X28018Y41259D01*
X29050Y41054D01*
X30066Y40782D01*
X31062Y40444D01*
X32034Y40041D01*
X32977Y39576D01*
X33888Y39050D01*
X34763Y38466D01*
X35597Y37825D01*
X36388Y37132D01*
X37132Y36388D01*
X37825Y35597D01*
X38466Y34763D01*
X39050Y33888D01*
X39576Y32977D01*
X40041Y32034D01*
X40444Y31062D01*
X40782Y30066D01*
X41054Y29050D01*
X41259Y28018D01*
X41397Y26976D01*
X41466Y25926D01*
X41466Y24874D01*
X1070166Y24874D02*
X1070097Y23824D01*
X1069959Y22782D01*
X1069754Y21750D01*
X1069482Y20734D01*
X1069144Y19738D01*
X1068741Y18766D01*
X1068276Y17823D01*
X1067750Y16912D01*
X1067166Y16037D01*
X1066525Y15203D01*
X1065832Y14412D01*
X1065088Y13668D01*
X1064297Y12975D01*
X1063463Y12334D01*
X1062588Y11750D01*
X1061677Y11224D01*
X1060734Y10759D01*
X1059762Y10356D01*
X1058766Y10018D01*
X1057750Y9746D01*
X1056718Y9541D01*
X1055676Y9403D01*
X1054626Y9335D01*
X1053574Y9335D01*
X1052524Y9403D01*
X1051482Y9541D01*
X1050450Y9746D01*
X1049434Y10018D01*
X1048438Y10356D01*
X1047466Y10759D01*
X1046523Y11224D01*
X1045612Y11750D01*
X1044737Y12334D01*
X1043903Y12975D01*
X1043112Y13668D01*
X1042368Y14412D01*
X1041675Y15203D01*
X1041034Y16037D01*
X1040450Y16912D01*
X1039924Y17823D01*
X1039459Y18766D01*
X1039056Y19738D01*
X1038718Y20734D01*
X1038446Y21750D01*
X1038241Y22782D01*
X1038103Y23824D01*
X1038035Y24874D01*
X1038035Y25926D01*
X1038103Y26976D01*
X1038241Y28018D01*
X1038446Y29050D01*
X1038718Y30066D01*
X1039056Y31062D01*
X1039459Y32034D01*
X1039924Y32977D01*
X1040450Y33888D01*
X1041034Y34763D01*
X1041675Y35597D01*
X1042368Y36388D01*
X1043112Y37132D01*
X1043903Y37825D01*
X1044737Y38466D01*
X1045612Y39050D01*
X1046523Y39576D01*
X1047466Y40041D01*
X1048438Y40444D01*
X1049434Y40782D01*
X1050450Y41054D01*
X1051482Y41259D01*
X1052524Y41397D01*
X1053574Y41466D01*
X1054626Y41466D01*
X1055676Y41397D01*
X1056718Y41259D01*
X1057750Y41054D01*
X1058766Y40782D01*
X1059762Y40444D01*
X1060734Y40041D01*
X1061677Y39576D01*
X1062588Y39050D01*
X1063463Y38466D01*
X1064297Y37825D01*
X1065088Y37132D01*
X1065832Y36388D01*
X1066525Y35597D01*
X1067166Y34763D01*
X1067750Y33888D01*
X1068276Y32977D01*
X1068741Y32034D01*
X1069144Y31062D01*
X1069482Y30066D01*
X1069754Y29050D01*
X1069959Y28018D01*
X1070097Y26976D01*
X1070166Y25926D01*
X1070166Y24874D01*
X1070166Y456674D02*
X1070097Y455624D01*
X1069959Y454582D01*
X1069754Y453550D01*
X1069482Y452534D01*
X1069144Y451538D01*
X1068741Y450566D01*
X1068276Y449623D01*
X1067750Y448712D01*
X1067166Y447837D01*
X1066525Y447003D01*
X1065832Y446212D01*
X1065088Y445468D01*
X1064297Y444775D01*
X1063463Y444134D01*
X1062588Y443550D01*
X1061677Y443024D01*
X1060734Y442559D01*
X1059762Y442156D01*
X1058766Y441818D01*
X1057750Y441546D01*
X1056718Y441341D01*
X1055676Y441203D01*
X1054626Y441135D01*
X1053574Y441135D01*
X1052524Y441203D01*
X1051482Y441341D01*
X1050450Y441546D01*
X1049434Y441818D01*
X1048438Y442156D01*
X1047466Y442559D01*
X1046523Y443024D01*
X1045612Y443550D01*
X1044737Y444134D01*
X1043903Y444775D01*
X1043112Y445468D01*
X1042368Y446212D01*
X1041675Y447003D01*
X1041034Y447837D01*
X1040450Y448712D01*
X1039924Y449623D01*
X1039459Y450566D01*
X1039056Y451538D01*
X1038718Y452534D01*
X1038446Y453550D01*
X1038241Y454582D01*
X1038103Y455624D01*
X1038035Y456674D01*
X1038035Y457726D01*
X1038103Y458776D01*
X1038241Y459818D01*
X1038446Y460850D01*
X1038718Y461866D01*
X1039056Y462862D01*
X1039459Y463834D01*
X1039924Y464777D01*
X1040450Y465688D01*
X1041034Y466563D01*
X1041675Y467397D01*
X1042368Y468188D01*
X1043112Y468932D01*
X1043903Y469625D01*
X1044737Y470266D01*
X1045612Y470850D01*
X1046523Y471376D01*
X1047466Y471841D01*
X1048438Y472244D01*
X1049434Y472582D01*
X1050450Y472854D01*
X1051482Y473059D01*
X1052524Y473197D01*
X1053574Y473266D01*
X1054626Y473266D01*
X1055676Y473197D01*
X1056718Y473059D01*
X1057750Y472854D01*
X1058766Y472582D01*
X1059762Y472244D01*
X1060734Y471841D01*
X1061677Y471376D01*
X1062588Y470850D01*
X1063463Y470266D01*
X1064297Y469625D01*
X1065088Y468932D01*
X1065832Y468188D01*
X1066525Y467397D01*
X1067166Y466563D01*
X1067750Y465688D01*
X1068276Y464777D01*
X1068741Y463834D01*
X1069144Y462862D01*
X1069482Y461866D01*
X1069754Y460850D01*
X1069959Y459818D01*
X1070097Y458776D01*
X1070166Y457726D01*
X1070166Y456674D01*
M02*
