M48
;GenerationSoftware,Autodesk,EAGLE,9.6.2*%
;CreationDate,2022-05-04T15:21:24Z*%
FMAT,2
ICI,OFF
METRIC,TZ,000.000
T8C0.600
T7C0.813
T6C1.016
T5C1.100
T4C1.500
T3C2.100
T2C2.500
T1C3.213
%
G90
M71
T1
X105410Y45720
X105410Y2540
X2540Y2540
X2540Y45720
T2
X96020Y12974
X30355Y8255
X33155Y12974
X17446Y8255
X9400Y8255
X12200Y12974
X80311Y40005
X72265Y40005
X75065Y44724
X59356Y40005
X51310Y40005
X93220Y8255
X101266Y8255
X38401Y40005
X54110Y44724
X30355Y40005
X33155Y44724
X80311Y8255
X72265Y8255
X75065Y12974
X17446Y40005
X9400Y40005
X12200Y44724
X59356Y8255
X51310Y8255
X54110Y12974
X38401Y8255
T3
X75565Y28630
X75565Y19630
X96520Y19630
X96520Y28630
X96520Y35505
X12700Y28630
X12700Y19630
X96520Y44505
X54610Y28630
X54610Y19630
X33655Y19630
X33655Y28630
T4
X12100Y35259
X74965Y3509
X54010Y3509
X33055Y35259
X54010Y35259
X95920Y3509
X74965Y35259
X12100Y3509
X33055Y3509
T5
X40655Y26630
X40655Y24130
X40655Y21630
X82565Y21630
X61610Y26630
X61610Y24130
X103520Y37505
X61610Y21630
X103520Y40005
X103520Y42505
X82565Y24130
X82565Y26630
X103520Y21630
X103520Y24130
X103520Y26630
X19700Y24130
X19700Y21630
X19700Y26630
T6
X87630Y2540
X2540Y25400
X85090Y2540
X82550Y2540
X82550Y45720
X85090Y45720
X87630Y45720
X2540Y17780
X2540Y20320
X2540Y22860
X2540Y27940
X2540Y30480
T7
X85725Y19050
X45085Y24130
X45085Y13970
X24130Y24130
X24130Y13970
X21590Y3810
X21590Y13970
X65405Y24130
X65405Y13970
X85725Y13970
T8
X90805Y43815
X79375Y2540
X78740Y46355
X64770Y8255
X43815Y8255
X64135Y40005
X43815Y40005
X22860Y40005
X85725Y41275
X3810Y40005
X104140Y32385
X104140Y15875
X6350Y32385
X3810Y8255
M30