G04 EAGLE Gerber RS-274X export*
G75*
%MOMM*%
%FSLAX34Y34*%
%LPD*%
%INSoldermask Bottom*%
%IPPOS*%
%AMOC8*
5,1,8,0,0,1.08239X$1,22.5*%
G01*
%ADD10C,3.416300*%
%ADD11R,1.879600X1.879600*%
%ADD12P,2.034460X8X22.500000*%
%ADD13R,3.319200X3.319200*%
%ADD14P,4.278904X8X22.500000*%
%ADD15P,4.278904X8X292.500000*%
%ADD16P,1.649562X8X112.500000*%
%ADD17C,1.727200*%
%ADD18P,1.649562X8X292.500000*%
%ADD19R,1.209600X1.209600*%


D10*
X25400Y457200D03*
X25400Y25400D03*
X1054100Y25400D03*
X1054100Y457200D03*
D11*
X616100Y216300D03*
D12*
X616100Y241300D03*
X616100Y266300D03*
D13*
X546100Y286300D03*
X546100Y196300D03*
D11*
X406550Y216300D03*
D12*
X406550Y241300D03*
X406550Y266300D03*
D13*
X336550Y286300D03*
X336550Y196300D03*
D11*
X825650Y216300D03*
D12*
X825650Y241300D03*
X825650Y266300D03*
D13*
X755650Y286300D03*
X755650Y196300D03*
D11*
X197000Y216300D03*
D12*
X197000Y241300D03*
X197000Y266300D03*
D13*
X127000Y286300D03*
X127000Y196300D03*
D14*
X541100Y129740D03*
X540100Y35090D03*
D15*
X513100Y82550D03*
X593560Y82550D03*
D14*
X122000Y447240D03*
X121000Y352590D03*
D15*
X94000Y400050D03*
X174460Y400050D03*
D14*
X750650Y129740D03*
X749650Y35090D03*
D15*
X722650Y82550D03*
X803110Y82550D03*
D14*
X331550Y447240D03*
X330550Y352590D03*
D15*
X303550Y400050D03*
X384010Y400050D03*
D14*
X541100Y447240D03*
X540100Y352590D03*
D15*
X513100Y400050D03*
X593560Y400050D03*
D14*
X750650Y447240D03*
X749650Y352590D03*
D15*
X722650Y400050D03*
X803110Y400050D03*
D14*
X122000Y129740D03*
X121000Y35090D03*
D15*
X94000Y82550D03*
X174460Y82550D03*
D14*
X331550Y129740D03*
X330550Y35090D03*
D15*
X303550Y82550D03*
X384010Y82550D03*
D16*
X857250Y139700D03*
X857250Y190500D03*
D11*
X1035200Y375050D03*
D12*
X1035200Y400050D03*
X1035200Y425050D03*
D13*
X965200Y445050D03*
X965200Y355050D03*
D11*
X1035200Y216300D03*
D12*
X1035200Y241300D03*
X1035200Y266300D03*
D13*
X965200Y286300D03*
X965200Y196300D03*
D14*
X960200Y129740D03*
X959200Y35090D03*
D15*
X932200Y82550D03*
X1012660Y82550D03*
D17*
X33020Y304800D02*
X17780Y304800D01*
X17780Y279400D02*
X33020Y279400D01*
X33020Y254000D02*
X17780Y254000D01*
X17780Y228600D02*
X33020Y228600D01*
X33020Y203200D02*
X17780Y203200D01*
X17780Y177800D02*
X33020Y177800D01*
X876300Y449580D02*
X876300Y464820D01*
X850900Y464820D02*
X850900Y449580D01*
X825500Y449580D02*
X825500Y464820D01*
D18*
X450850Y241300D03*
X450850Y139700D03*
X241300Y241300D03*
X241300Y139700D03*
D16*
X215900Y38100D03*
X215900Y139700D03*
D18*
X654050Y241300D03*
X654050Y139700D03*
D17*
X825500Y33020D02*
X825500Y17780D01*
X850900Y17780D02*
X850900Y33020D01*
X876300Y33020D02*
X876300Y17780D01*
D19*
X38100Y82550D03*
X787400Y463550D03*
X793750Y25400D03*
X908050Y438150D03*
X641350Y400050D03*
X647700Y82550D03*
X438150Y82550D03*
X438150Y400050D03*
X228600Y400050D03*
X857250Y412750D03*
X38100Y400050D03*
X1041400Y323850D03*
X1041400Y158750D03*
X63500Y323850D03*
M02*
